<svg width="99.99999499999998" height="99.99999499999998" xmlns="http://www.w3.org/2000/svg">

 <g>
  <title>background</title>
  <rect fill="none" id="canvas_background" height="402" width="582" y="-1" x="-1"/>
 </g>
 <g>
  <title>Layer 1</title>
  <rect id="svg_1" height="77.675819" width="82.244985" y="11.093075" x="10.114986" stroke-width="1.5" stroke="#000" fill="#ffffff"/>
  <path fill="#32c8fa" fill-rule="nonzero" stroke-width="3.8" stroke-linecap="round" stroke-linejoin="round" stroke-miterlimit="4" stroke-dashoffset="0" id="rect4208" d="m20,0c-11.08,0 -20,8.92 -20,20l0,60c0,11.08 8.92,20 20,20l60,0c11.08,0 20,-8.92 20,-20l0,-60c0,-11.08 -8.92,-20 -20,-20l-60,0zm28.63672,14.22656c12.25236,0 23.00026,6.56277 28.94726,16.34571l7.02344,-4.26563l0.3711,23.5293l-20.75782,-11.14844l7.45703,-4.52734c-4.70847,-7.79126 -13.24065,-12.99219 -23.04101,-12.99219c-11.45186,0 -21.1879,7.02472 -25.09375,17.06641c-0.0871,0.26814 -0.14548,0.53489 -0.2832,0.84765c-0.9633,2.14014 -3.17013,3.23707 -4.92969,2.44922c-1.15295,-0.51869 -1.87361,-1.75509 -1.88281,-3.23242c0.01607,-0.70514 0.27773,-1.54298 0.59179,-2.3711c4.90273,-12.67634 17.22034,-21.70117 31.59766,-21.70117zm-33.61524,35.9375l20.75782,11.14844l-7.45703,4.52734c4.70847,7.79123 13.24065,12.99219 23.04101,12.99219c11.45186,0 21.1879,-7.02472 25.09375,-17.0664c0.0871,-0.26815 0.14548,-0.53489 0.2832,-0.84766c0.9633,-2.14014 3.17013,-3.23707 4.92969,-2.44922c1.15295,0.5187 1.87361,1.75511 1.88281,3.23242c-0.01607,0.70515 -0.27773,1.54298 -0.59179,2.3711c-4.90273,12.67635 -17.22034,21.70117 -31.59766,21.70117c-12.25236,0 -23.00026,-6.56278 -28.94726,-16.34571l-7.02344,4.26563l-0.3711,-23.5293z"/>
 </g>
</svg>